<svg width="11" height="10" viewBox="0 0 11 10" fill="none" xmlns="http://www.w3.org/2000/svg">
<path d="M4.75 5.75H1.25C1.0375 5.75 0.859375 5.67855 0.715625 5.53565C0.571875 5.39273 0.5 5.21565 0.5 5.0044C0.5 4.79313 0.571875 4.61458 0.715625 4.46875C0.859375 4.32292 1.0375 4.25 1.25 4.25H4.75V0.75C4.75 0.5375 4.82145 0.359374 4.96435 0.215624C5.10727 0.0718745 5.28435 0 5.4956 0C5.70687 0 5.88542 0.0718745 6.03125 0.215624C6.17708 0.359374 6.25 0.5375 6.25 0.75V4.25H9.75C9.9625 4.25 10.1406 4.32145 10.2844 4.46435C10.4281 4.60727 10.5 4.78435 10.5 4.9956C10.5 5.20687 10.4281 5.38542 10.2844 5.53125C10.1406 5.67708 9.9625 5.75 9.75 5.75H6.25V9.25C6.25 9.4625 6.17855 9.64062 6.03565 9.78438C5.89273 9.92813 5.71565 10 5.5044 10C5.29313 10 5.11458 9.92813 4.96875 9.78438C4.82292 9.64062 4.75 9.4625 4.75 9.25V5.75Z" fill="white"/>
</svg>
