<svg width="18" height="18" viewBox="0 0 18 18" fill="none" xmlns="http://www.w3.org/2000/svg">
<path d="M5.05835 13.7692C5.30918 13.7692 5.51921 13.6844 5.68843 13.5147C5.85766 13.345 5.94228 13.1347 5.94228 12.8839C5.94228 12.6331 5.85743 12.423 5.68775 12.2538C5.51808 12.0846 5.30783 12 5.057 12C4.80617 12 4.59613 12.0848 4.4269 12.2545C4.25768 12.4242 4.17308 12.6344 4.17308 12.8853C4.17308 13.1361 4.25791 13.3461 4.42758 13.5154C4.59726 13.6846 4.80752 13.7692 5.05835 13.7692ZM5.05835 9.88458C5.30918 9.88458 5.51921 9.79974 5.68843 9.63008C5.85766 9.46039 5.94228 9.25013 5.94228 8.9993C5.94228 8.74847 5.85743 8.53843 5.68775 8.3692C5.51808 8.19999 5.30783 8.11538 5.057 8.11538C4.80617 8.11538 4.59613 8.20021 4.4269 8.36988C4.25768 8.53956 4.17308 8.74982 4.17308 9.00065C4.17308 9.25148 4.25791 9.46152 4.42758 9.63075C4.59726 9.79997 4.80752 9.88458 5.05835 9.88458ZM5.05835 5.99998C5.30918 5.99998 5.51921 5.91513 5.68843 5.74545C5.85766 5.57578 5.94228 5.36553 5.94228 5.1147C5.94228 4.86387 5.85743 4.65383 5.68775 4.4846C5.51808 4.31537 5.30783 4.23075 5.057 4.23075C4.80617 4.23075 4.59613 4.31559 4.4269 4.48528C4.25768 4.65496 4.17308 4.86522 4.17308 5.11605C4.17308 5.36688 4.25791 5.57691 4.42758 5.74613C4.59726 5.91536 4.80752 5.99998 5.05835 5.99998ZM8.84613 13.6346H13.0385C13.2509 13.6346 13.4291 13.5627 13.5728 13.4189C13.7166 13.275 13.7884 13.0968 13.7884 12.8843C13.7884 12.6717 13.7166 12.4936 13.5728 12.35C13.4291 12.2064 13.2509 12.1346 13.0385 12.1346H8.84613C8.63363 12.1346 8.4555 12.2065 8.31175 12.3503C8.168 12.4941 8.09613 12.6723 8.09613 12.8849C8.09613 13.0975 8.168 13.2756 8.31175 13.4192C8.4555 13.5628 8.63363 13.6346 8.84613 13.6346ZM8.84613 9.74995H13.0385C13.2509 9.74995 13.4291 9.67805 13.5728 9.53425C13.7166 9.39044 13.7884 9.21223 13.7884 8.99965C13.7884 8.78705 13.7166 8.60896 13.5728 8.46538C13.4291 8.32179 13.2509 8.25 13.0385 8.25H8.84613C8.63363 8.25 8.4555 8.3219 8.31175 8.4657C8.168 8.60952 8.09613 8.78772 8.09613 9.0003C8.09613 9.2129 8.168 9.39099 8.31175 9.53458C8.4555 9.67816 8.63363 9.74995 8.84613 9.74995ZM8.84613 5.86535H13.0385C13.2509 5.86535 13.4291 5.79344 13.5728 5.64963C13.7166 5.50583 13.7884 5.32763 13.7884 5.11503C13.7884 4.90244 13.7166 4.72436 13.5728 4.58078C13.4291 4.43718 13.2509 4.36538 13.0385 4.36538H8.84613C8.63363 4.36538 8.4555 4.43728 8.31175 4.5811C8.168 4.72492 8.09613 4.90312 8.09613 5.1157C8.09613 5.3283 8.168 5.50639 8.31175 5.64998C8.4555 5.79356 8.63363 5.86535 8.84613 5.86535ZM2.3077 17.5C1.80257 17.5 1.375 17.325 1.025 16.975C0.675 16.625 0.5 16.1974 0.5 15.6923V2.3077C0.5 1.80257 0.675 1.375 1.025 1.025C1.375 0.675 1.80257 0.5 2.3077 0.5H15.6923C16.1974 0.5 16.625 0.675 16.975 1.025C17.325 1.375 17.5 1.80257 17.5 2.3077V15.6923C17.5 16.1974 17.325 16.625 16.975 16.975C16.625 17.325 16.1974 17.5 15.6923 17.5H2.3077ZM2.3077 16H15.6923C15.7692 16 15.8397 15.9679 15.9038 15.9038C15.9679 15.8397 16 15.7692 16 15.6923V2.3077C16 2.23077 15.9679 2.16024 15.9038 2.09613C15.8397 2.03203 15.7692 1.99998 15.6923 1.99998H2.3077C2.23077 1.99998 2.16024 2.03203 2.09612 2.09613C2.03202 2.16024 1.99997 2.23077 1.99997 2.3077V15.6923C1.99997 15.7692 2.03202 15.8397 2.09612 15.9038C2.16024 15.9679 2.23077 16 2.3077 16Z" fill="#B4B9C0"/>
</svg>
