<svg width="16" height="17" viewBox="0 0 16 17" fill="none" xmlns="http://www.w3.org/2000/svg">
<path d="M1.99997 16.5C1.59101 16.5 1.23877 16.3522 0.943275 16.0567C0.647758 15.7612 0.5 15.409 0.5 15V5.99999C0.5 5.76026 0.553208 5.53558 0.659625 5.32597C0.766025 5.11637 0.912175 4.94234 1.09807 4.80387L7.09808 0.284642C7.23653 0.183359 7.38011 0.109001 7.52882 0.0615677C7.67754 0.0141344 7.83459 -0.00958252 7.99997 -0.00958252C8.16536 -0.00958252 8.32241 0.0141344 8.47113 0.0615677C8.61984 0.109001 8.76342 0.183359 8.90187 0.284642L14.9019 4.80387C15.0878 4.94234 15.2339 5.11637 15.3403 5.32597C15.4467 5.53558 15.5 5.76026 15.5 5.99999V15C15.5 15.409 15.3522 15.7612 15.0567 16.0567C14.7612 16.3522 14.4089 16.5 14 16.5H9.90382V9.80767H6.09613V16.5H1.99997Z" fill="#26282B"/>
</svg>
