<svg width="32" height="32" viewBox="0 0 32 32" fill="none" xmlns="http://www.w3.org/2000/svg">
<rect width="32" height="32" rx="16" fill="#18004A"/>
<path d="M15.25 16.75H11.75C11.5375 16.75 11.3594 16.6785 11.2156 16.5356C11.0719 16.3927 11 16.2156 11 16.0044C11 15.7931 11.0719 15.6146 11.2156 15.4688C11.3594 15.3229 11.5375 15.25 11.75 15.25H15.25V11.75C15.25 11.5375 15.3215 11.3594 15.4644 11.2156C15.6073 11.0719 15.7844 11 15.9956 11C16.2069 11 16.3854 11.0719 16.5312 11.2156C16.6771 11.3594 16.75 11.5375 16.75 11.75V15.25H20.25C20.4625 15.25 20.6406 15.3215 20.7844 15.4644C20.9281 15.6073 21 15.7844 21 15.9956C21 16.2069 20.9281 16.3854 20.7844 16.5312C20.6406 16.6771 20.4625 16.75 20.25 16.75H16.75V20.25C16.75 20.4625 16.6785 20.6406 16.5356 20.7844C16.3927 20.9281 16.2156 21 16.0044 21C15.7931 21 15.6146 20.9281 15.4688 20.7844C15.3229 20.6406 15.25 20.4625 15.25 20.25V16.75Z" fill="white"/>
</svg>
