<svg width="125" height="35" viewBox="0 0 125 35" fill="none" xmlns="http://www.w3.org/2000/svg">
<path fill-rule="evenodd" clip-rule="evenodd" d="M13.75 21.25L20.625 14.375L27.5 21.2499L34.3749 14.375L41.2499 21.25L34.375 28.125L34.375 28.125L31.625 30.875C29.3468 33.1531 25.6531 33.1531 23.375 30.875L20.625 28.125L20.625 28.1249L13.75 21.25ZM48.125 14.375L55 7.49997L48.125 0.624976L41.25 7.49997L41.25 7.49999L34.375 14.375L41.25 21.25L48.125 14.375L48.125 14.375Z" fill="url(#paint0_linear_26_450)"/>
<path fill-rule="evenodd" clip-rule="evenodd" d="M3.56744e-06 21.25L6.875 14.375L13.75 21.25L20.625 14.375L27.5 21.25L20.625 28.125L20.625 28.125L17.875 30.875C15.5968 33.1532 11.9032 33.1532 9.62499 30.875L6.875 28.125L3.56744e-06 21.25ZM34.375 14.375L41.25 7.5L34.375 0.625003L27.5 7.5L27.5001 7.50001L20.6251 14.375L27.5001 21.25L34.3751 14.375L34.375 14.375Z" fill="url(#paint1_linear_26_450)"/>
<path d="M69.8478 15.264C71.0238 15.264 72.0692 15.5253 72.9838 16.048C73.8985 16.552 74.6078 17.308 75.1118 18.316C75.6345 19.3053 75.8958 20.5 75.8958 21.9V31H71.9758V22.432C71.9758 21.2 71.6678 20.2573 71.0518 19.604C70.4358 18.932 69.5958 18.596 68.5318 18.596C67.4492 18.596 66.5905 18.932 65.9558 19.604C65.3398 20.2573 65.0318 21.2 65.0318 22.432V31H61.1118V10.28H65.0318V17.42C65.5358 16.748 66.2078 16.2253 67.0478 15.852C67.8878 15.46 68.8212 15.264 69.8478 15.264ZM78.0556 23.188C78.0556 21.62 78.3636 20.2293 78.9796 19.016C79.6142 17.8027 80.4636 16.8693 81.5276 16.216C82.6102 15.5627 83.8142 15.236 85.1396 15.236C86.2969 15.236 87.3049 15.4693 88.1636 15.936C89.0409 16.4027 89.7409 16.9907 90.2636 17.7V15.488H94.2116V31H90.2636V28.732C89.7596 29.46 89.0596 30.0667 88.1636 30.552C87.2862 31.0187 86.2689 31.252 85.1116 31.252C83.8049 31.252 82.6102 30.916 81.5276 30.244C80.4636 29.572 79.6142 28.6293 78.9796 27.416C78.3636 26.184 78.0556 24.7747 78.0556 23.188ZM90.2636 23.244C90.2636 22.292 90.0769 21.48 89.7036 20.808C89.3302 20.1173 88.8262 19.5947 88.1916 19.24C87.5569 18.8667 86.8756 18.68 86.1476 18.68C85.4196 18.68 84.7476 18.8573 84.1316 19.212C83.5156 19.5667 83.0116 20.0893 82.6196 20.78C82.2462 21.452 82.0596 22.2547 82.0596 23.188C82.0596 24.1213 82.2462 24.9427 82.6196 25.652C83.0116 26.3427 83.5156 26.8747 84.1316 27.248C84.7662 27.6213 85.4382 27.808 86.1476 27.808C86.8756 27.808 87.5569 27.6307 88.1916 27.276C88.8262 26.9027 89.3302 26.38 89.7036 25.708C90.0769 25.0173 90.2636 24.196 90.2636 23.244ZM101.4 17.896C101.904 17.0747 102.557 16.4307 103.36 15.964C104.181 15.4973 105.115 15.264 106.16 15.264V19.38H105.124C103.892 19.38 102.959 19.6693 102.324 20.248C101.708 20.8267 101.4 21.8347 101.4 23.272V31H97.4801V15.488H101.4V17.896ZM122.884 15.488V31H118.936V29.04C118.432 29.712 117.77 30.244 116.948 30.636C116.146 31.0093 115.268 31.196 114.316 31.196C113.103 31.196 112.03 30.944 111.096 30.44C110.163 29.9173 109.426 29.1613 108.884 28.172C108.362 27.164 108.1 25.9693 108.1 24.588V15.488H112.02V24.028C112.02 25.26 112.328 26.212 112.944 26.884C113.56 27.5373 114.4 27.864 115.464 27.864C116.547 27.864 117.396 27.5373 118.012 26.884C118.628 26.212 118.936 25.26 118.936 24.028V15.488H122.884Z" fill="#18004A"/>
<defs>
<linearGradient id="paint0_linear_26_450" x1="22.3437" y1="29.8437" x2="49.8437" y2="2.34375" gradientUnits="userSpaceOnUse">
<stop stop-color="#00F1AA"/>
<stop offset="1" stop-color="#00F1AA" stop-opacity="0.2"/>
</linearGradient>
<linearGradient id="paint1_linear_26_450" x1="8.59375" y1="29.8437" x2="36.0937" y2="2.34375" gradientUnits="userSpaceOnUse">
<stop stop-color="#18004A"/>
<stop offset="1" stop-color="#18004A" stop-opacity="0.2"/>
</linearGradient>
</defs>
</svg>
