<svg width="16" height="16" viewBox="0 0 16 16" fill="none" xmlns="http://www.w3.org/2000/svg">
<path d="M7.99997 7.69225C7.03749 7.69225 6.21354 7.34955 5.52813 6.66415C4.84271 5.97873 4.5 5.15478 4.5 4.1923C4.5 3.2298 4.84271 2.40585 5.52813 1.72045C6.21354 1.03503 7.03749 0.692322 7.99997 0.692322C8.96246 0.692322 9.78641 1.03503 10.4718 1.72045C11.1572 2.40585 11.5 3.2298 11.5 4.1923C11.5 5.15478 11.1572 5.97873 10.4718 6.66415C9.78641 7.34955 8.96246 7.69225 7.99997 7.69225ZM0.5 13.7884V13.0846C0.5 12.5948 0.633016 12.1413 0.89905 11.724C1.16507 11.3067 1.52051 10.9859 1.96537 10.7615C2.95384 10.2769 3.95096 9.91345 4.95672 9.67115C5.96249 9.42885 6.97691 9.3077 7.99997 9.3077C9.02304 9.3077 10.0375 9.42885 11.0432 9.67115C12.049 9.91345 13.0461 10.2769 14.0346 10.7615C14.4794 10.9859 14.8349 11.3067 15.1009 11.724C15.3669 12.1413 15.5 12.5948 15.5 13.0846V13.7884C15.5 14.2102 15.3522 14.5688 15.0567 14.8643C14.7612 15.1599 14.4025 15.3076 13.9808 15.3076H2.0192C1.59742 15.3076 1.23877 15.1599 0.943275 14.8643C0.647758 14.5688 0.5 14.2102 0.5 13.7884ZM1.99997 13.8076H14V13.0846C14 12.882 13.9413 12.6945 13.824 12.5221C13.7067 12.3496 13.5474 12.2089 13.3461 12.0999C12.4846 11.6756 11.6061 11.3541 10.7107 11.1355C9.81524 10.9169 8.91167 10.8076 7.99997 10.8076C7.08827 10.8076 6.18471 10.9169 5.28927 11.1355C4.39384 11.3541 3.51536 11.6756 2.65382 12.0999C2.45254 12.2089 2.29325 12.3496 2.17595 12.5221C2.05863 12.6945 1.99997 12.882 1.99997 13.0846V13.8076ZM7.99997 6.1923C8.54998 6.1923 9.02081 5.99646 9.41247 5.6048C9.80414 5.21313 9.99998 4.7423 9.99998 4.1923C9.99998 3.6423 9.80414 3.17146 9.41247 2.7798C9.02081 2.38813 8.54998 2.1923 7.99997 2.1923C7.44998 2.1923 6.97914 2.38813 6.58747 2.7798C6.19581 3.17146 5.99997 3.6423 5.99997 4.1923C5.99997 4.7423 6.19581 5.21313 6.58747 5.6048C6.97914 5.99646 7.44998 6.1923 7.99997 6.1923Z" fill="#B4B9C0"/>
</svg>
