<svg width="16" height="18" viewBox="0 0 16 18" fill="none" xmlns="http://www.w3.org/2000/svg">
<path d="M13 17.3333C12.3056 17.3333 11.7153 17.0903 11.2292 16.6042C10.7431 16.1181 10.5 15.5278 10.5 14.8333C10.5 14.7361 10.5069 14.6354 10.5208 14.5313C10.5347 14.4271 10.5556 14.3333 10.5833 14.25L4.70833 10.8333C4.47222 11.0417 4.20833 11.2049 3.91667 11.3229C3.625 11.441 3.31944 11.5 3 11.5C2.30556 11.5 1.71528 11.257 1.22917 10.7708C0.743056 10.2847 0.5 9.69445 0.5 9.00001C0.5 8.30556 0.743056 7.71528 1.22917 7.22917C1.71528 6.74306 2.30556 6.50001 3 6.50001C3.31944 6.50001 3.625 6.55903 3.91667 6.67709C4.20833 6.79514 4.47222 6.95834 4.70833 7.16667L10.5833 3.75001C10.5556 3.66667 10.5347 3.57292 10.5208 3.46876C10.5069 3.36459 10.5 3.26389 10.5 3.16667C10.5 2.47223 10.7431 1.88195 11.2292 1.39584C11.7153 0.909727 12.3056 0.666672 13 0.666672C13.6944 0.666672 14.2847 0.909727 14.7708 1.39584C15.2569 1.88195 15.5 2.47223 15.5 3.16667C15.5 3.86112 15.2569 4.45139 14.7708 4.93751C14.2847 5.42362 13.6944 5.66667 13 5.66667C12.6806 5.66667 12.375 5.60764 12.0833 5.48959C11.7917 5.37153 11.5278 5.20834 11.2917 5.00001L5.41667 8.41667C5.44444 8.50001 5.46528 8.59376 5.47917 8.69792C5.49306 8.80209 5.5 8.90278 5.5 9.00001C5.5 9.09723 5.49306 9.19792 5.47917 9.30209C5.46528 9.40626 5.44444 9.50001 5.41667 9.58334L11.2917 13C11.5278 12.7917 11.7917 12.6285 12.0833 12.5104C12.375 12.3924 12.6806 12.3333 13 12.3333C13.6944 12.3333 14.2847 12.5764 14.7708 13.0625C15.2569 13.5486 15.5 14.1389 15.5 14.8333C15.5 15.5278 15.2569 16.1181 14.7708 16.6042C14.2847 17.0903 13.6944 17.3333 13 17.3333ZM13 4.00001C13.2361 4.00001 13.434 3.92014 13.5938 3.76042C13.7535 3.6007 13.8333 3.40278 13.8333 3.16667C13.8333 2.93056 13.7535 2.73264 13.5938 2.57292C13.434 2.4132 13.2361 2.33334 13 2.33334C12.7639 2.33334 12.566 2.4132 12.4063 2.57292C12.2465 2.73264 12.1667 2.93056 12.1667 3.16667C12.1667 3.40278 12.2465 3.6007 12.4063 3.76042C12.566 3.92014 12.7639 4.00001 13 4.00001ZM3 9.83334C3.23611 9.83334 3.43403 9.75348 3.59375 9.59376C3.75347 9.43403 3.83333 9.23612 3.83333 9.00001C3.83333 8.76389 3.75347 8.56598 3.59375 8.40626C3.43403 8.24653 3.23611 8.16667 3 8.16667C2.76389 8.16667 2.56597 8.24653 2.40625 8.40626C2.24653 8.56598 2.16667 8.76389 2.16667 9.00001C2.16667 9.23612 2.24653 9.43403 2.40625 9.59376C2.56597 9.75348 2.76389 9.83334 3 9.83334ZM13 15.6667C13.2361 15.6667 13.434 15.5868 13.5938 15.4271C13.7535 15.2674 13.8333 15.0695 13.8333 14.8333C13.8333 14.5972 13.7535 14.3993 13.5938 14.2396C13.434 14.0799 13.2361 14 13 14C12.7639 14 12.566 14.0799 12.4063 14.2396C12.2465 14.3993 12.1667 14.5972 12.1667 14.8333C12.1667 15.0695 12.2465 15.2674 12.4063 15.4271C12.566 15.5868 12.7639 15.6667 13 15.6667Z" fill="#9EA4AA"/>
</svg>
